<svg width="984" height="249" viewBox="0 0 984 249" fill="none" xmlns="http://www.w3.org/2000/svg">
<path d="M1.64663 238.708C2.30513 238.708 2.85388 238.598 3.29289 238.378C8.78042 237.281 13.6094 234.757 17.78 230.806C21.9505 226.635 25.5723 219.611 28.6453 209.734L79.6793 42.1443C81.8744 35.5592 82.8621 30.2912 82.6426 26.3402C82.4231 22.3892 81.3256 19.5356 79.3501 17.7796C77.5941 15.8041 75.0698 14.3774 71.7773 13.4993H70.4603L71.7773 8.56057H119.519L57.9487 209.734C55.9732 216.099 54.9854 221.257 54.9854 225.208C55.2049 229.159 56.083 232.232 57.6195 234.427C59.3755 236.403 61.79 237.72 64.863 238.378C65.741 238.598 66.5093 238.708 67.1678 238.708L65.8508 243.646H0.000366618L1.64663 238.708ZM97.1297 130.713L126.433 128.079L140.262 214.014C141.579 222.135 143.335 228.062 145.53 231.793C147.725 235.305 150.688 237.61 154.42 238.708H155.078L153.432 243.646H115.239L97.1297 130.713ZM81.9841 124.457H105.361C115.458 124.457 124.348 120.287 132.03 111.946C139.932 103.605 146.408 90.9833 151.456 74.0817C156.066 58.4971 157.383 45.2173 155.407 34.2422C153.432 23.2672 147.066 17.7796 136.311 17.7796H106.678L105.032 8.56057H147.176C157.493 8.56057 165.834 11.3043 172.199 16.7919C178.565 22.2794 182.516 29.962 184.052 39.8395C185.808 49.4976 185.04 60.5824 181.747 73.094C178.016 86.4835 172.528 97.7879 165.285 107.007C158.041 116.226 149.7 123.031 140.262 127.421C131.043 131.811 121.385 133.786 111.288 133.347L109.971 134.006H74.4113L81.9841 124.457ZM179.422 247.598C171.959 247.378 166.362 243.317 162.63 235.415C159.118 227.513 157.801 216.648 158.679 202.819C159.777 184.162 164.277 164.955 172.179 145.2C180.081 125.445 190.068 109.092 202.14 96.1416C214.433 83.191 227.054 77.045 240.004 77.7035C246.59 78.1425 251.858 80.2278 255.809 83.9593C259.76 87.4713 262.503 92.5198 264.04 99.1049L252.845 110.958C254.821 104.373 254.931 98.8854 253.175 94.4953C251.419 89.8858 248.346 87.4713 243.955 87.2518C236.492 87.2518 228.481 93.8368 219.92 107.007C211.579 119.957 203.897 137.298 196.872 159.029C192.921 171.76 189.958 183.284 187.983 193.6C186.007 203.917 185.239 212.587 185.678 219.611C186.336 226.635 188.861 230.257 193.251 230.476C196.543 230.696 200.714 227.842 205.762 221.916C210.811 215.989 216.957 205.234 224.2 189.649C231.444 174.065 239.346 152.992 247.907 126.433L248.565 136.969C234.956 178.894 222.554 207.978 211.36 224.221C200.165 240.244 189.519 248.037 179.422 247.598ZM235.066 247.927C229.578 247.927 225.517 246.061 222.883 242.329C220.249 238.378 218.932 233.001 218.932 226.196C219.152 219.392 220.798 211.38 223.871 202.161L256.796 97.7879L284.124 80.0083H290.709L252.845 198.868C249.553 209.404 247.687 217.636 247.248 223.562C246.809 229.269 248.016 232.123 250.87 232.123C253.504 232.123 257.235 229.159 262.064 223.233C267.113 217.306 272.161 209.295 277.21 199.197L279.844 201.502C274.356 214.453 267.442 225.428 259.101 234.427C250.76 243.427 242.748 247.927 235.066 247.927ZM306.413 247.598C296.535 247.598 288.853 243.427 283.365 235.086C277.878 226.525 275.024 215.221 274.805 201.173C274.805 186.905 277.549 171.321 283.036 154.419C288.524 137.957 295.218 124.018 303.121 112.604C311.242 100.971 319.912 92.3003 329.131 86.5933C338.57 80.6668 347.789 77.8132 356.789 78.0327C362.057 78.2522 366.776 79.1302 370.946 80.6668C375.117 81.9838 379.836 84.1788 385.104 87.2518L387.08 88.2396L373.58 132.359H370.617C370.178 115.458 368.861 103.605 366.666 96.8001C364.471 89.7761 360.74 86.264 355.472 86.264C351.082 86.264 346.253 88.6786 340.984 93.5076C335.716 98.1171 330.558 105.141 325.51 114.58C320.461 123.799 315.961 134.774 312.01 147.505C307.181 162.651 304.218 176.479 303.121 188.991C302.243 201.502 303.23 211.38 306.084 218.623C309.157 225.867 313.986 229.598 320.571 229.818C326.936 230.037 333.521 227.184 340.326 221.257C347.35 215.111 354.155 206.551 360.74 195.576L363.374 197.551C355.472 213.575 346.472 225.977 336.375 234.757C326.278 243.537 316.291 247.817 306.413 247.598ZM415.239 38.1933C417.214 32.0472 418.092 27.2182 417.873 23.7062C417.873 20.1942 416.995 17.8894 415.239 16.7919C413.702 15.4749 411.507 14.9261 408.653 15.1456C407.995 15.1456 407.007 15.2554 405.69 15.4749L406.678 10.8653L455.078 3.59225e-05L380.338 243.646H352.351L415.239 38.1933ZM434.006 248.256C427.86 248.256 423.031 245.732 419.519 240.683C416.226 235.415 414.47 228.83 414.251 220.928L409.97 141.249L421.824 139.603C422.921 139.383 424.019 139.274 425.116 139.274C428.848 138.835 431.701 139.822 433.677 142.237C435.872 144.432 437.079 147.724 437.298 152.114L440.591 206.112C440.591 207.429 440.591 208.636 440.591 209.734C441.03 216.758 441.798 222.355 442.896 226.525C444.213 230.696 446.188 232.781 448.822 232.781C451.456 232.781 454.968 229.928 459.358 224.221C463.748 218.294 468.358 210.282 473.187 200.185L475.492 202.49C470.224 215.66 463.858 226.635 456.395 235.415C449.151 243.976 441.688 248.256 434.006 248.256ZM398.447 140.92C409.422 140.92 419.409 138.286 428.409 133.018C437.408 127.75 444.761 121.055 450.468 112.933C456.395 104.812 460.566 96.3611 462.98 87.581C463.419 85.6055 463.858 83.7398 464.297 81.9838L465.614 80.0083H493.271C491.076 88.7883 487.125 96.9099 481.418 104.373C475.931 111.616 469.126 118.092 461.005 123.799C452.883 129.286 443.554 134.006 433.018 137.957C428.189 139.932 420.616 142.237 410.3 144.871L398.447 140.92ZM503.234 113.263C505.209 107.117 506.416 102.178 506.855 98.4464C507.294 94.4953 506.965 91.5321 505.868 89.5566C504.77 87.3616 503.014 85.825 500.6 84.947C499.722 84.7275 498.953 84.6178 498.295 84.6178L499.612 80.0083H541.427L491.381 243.646H463.065L503.234 113.263ZM505.868 187.674C515.745 158.699 525.294 135.762 534.513 118.86C543.951 101.958 552.951 90.5443 561.511 84.6178C570.072 78.6912 578.413 77.045 586.534 79.679L574.023 108.653L572.047 108.324C566.56 105.251 559.975 106.458 552.292 111.946C544.829 117.433 536.598 128.518 527.598 145.2C518.599 161.882 509.489 184.93 500.27 214.343L505.868 187.674ZM605.942 247.927C593.431 247.707 583.334 242.549 575.651 232.452C567.969 222.135 563.688 207.539 562.81 188.661C561.932 169.784 565.225 147.505 572.688 121.823C579.931 97.2391 589.041 76.167 600.016 58.6069C611.21 40.8273 623.502 27.4377 636.892 18.4381C650.501 9.21909 664.549 4.82906 679.036 5.26806C686.06 5.26806 692.755 6.80457 699.121 9.87759C705.486 12.7311 712.62 17.2309 720.522 23.3769L703.072 84.2885H699.45C702.523 62.3384 702.303 45.327 698.791 33.2545C695.279 20.9624 688.146 14.7066 677.39 14.4871C668.39 14.2676 659.391 18.6576 650.391 27.6572C641.611 36.4372 633.27 48.7293 625.368 64.5334C617.686 80.118 610.881 98.0074 604.955 118.201C598.589 140.591 595.077 160.126 594.418 176.808C593.76 193.271 595.626 205.892 600.016 214.672C604.625 223.452 610.991 228.062 619.112 228.501C628.551 228.72 638.319 224.879 648.416 216.977C658.732 208.856 668.281 198.1 677.061 184.71L679.365 188.332C673 199.307 665.976 209.295 658.293 218.294C650.83 227.294 642.599 234.537 633.599 240.025C624.6 245.512 615.381 248.146 605.942 247.927ZM696.085 247.927C691.476 247.927 687.744 246.171 684.891 242.659C682.037 239.147 680.501 233.988 680.281 227.184C680.281 220.16 681.818 211.819 684.891 202.161L735.925 38.1933C737.9 31.8277 738.669 26.9987 738.23 23.7062C738.01 20.1942 736.913 17.8894 734.937 16.7919C733.181 15.6944 730.766 15.2554 727.693 15.4749C727.254 15.4749 726.925 15.4749 726.706 15.4749C726.706 15.4749 726.596 15.5846 726.376 15.8041L727.364 11.1946L775.764 0.658531L713.536 198.868C710.024 210.063 708.158 218.404 707.938 223.891C707.938 229.379 709.255 232.123 711.889 232.123C714.304 232.123 717.816 229.269 722.425 223.562C727.254 217.855 732.522 209.734 738.23 199.197L740.534 201.502C735.047 214.453 728.242 225.428 720.121 234.427C711.999 243.427 703.987 247.927 696.085 247.927ZM756.57 247.927C751.302 247.927 746.912 246.171 743.4 242.659C739.888 239.147 737.912 234.208 737.473 227.842C736.815 221.257 737.912 213.794 740.766 205.453L771.716 116.226C774.35 108.543 775.447 102.836 775.008 99.1049C774.569 95.3733 773.252 93.5076 771.057 93.5076C768.423 93.5076 765.021 95.9221 760.85 100.751C756.68 105.361 752.07 112.165 747.022 121.165L744.717 119.518C749.546 108.104 756.021 98.3366 764.143 90.2151C772.264 81.874 780.166 77.7035 787.849 77.7035C792.239 77.7035 795.861 79.24 798.714 82.313C801.568 85.1665 803.104 89.4468 803.324 95.1538C803.763 100.861 802.555 107.775 799.702 115.897L770.728 199.856C768.094 207.319 766.447 213.465 765.789 218.294C765.35 222.904 765.569 226.196 766.447 228.172C767.545 229.928 769.081 230.806 771.057 230.806C774.789 230.806 779.947 226.964 786.532 219.282C793.117 211.599 800.69 198.868 809.25 181.089C818.03 163.09 827.03 139.932 836.249 111.616L834.273 133.347C818.03 176.808 803.653 206.77 791.141 223.233C778.63 239.695 767.106 247.927 756.57 247.927ZM837.237 199.856C833.944 210.612 832.188 218.733 831.969 224.221C831.969 229.489 833.286 232.123 835.92 232.123C838.554 232.123 842.175 229.269 846.785 223.562C851.614 217.855 856.882 209.734 862.589 199.197L864.565 201.502C859.077 214.453 852.163 225.428 843.822 234.427C835.7 243.427 827.798 247.927 820.116 247.927C815.287 247.927 811.445 246.281 808.592 242.988C805.958 239.476 804.531 234.318 804.311 227.513C804.311 220.489 805.848 212.038 808.921 202.161L846.126 80.0083H874.113L837.237 199.856ZM913.392 38.5225C915.148 32.157 915.806 27.3279 915.367 24.0354C915.148 20.5234 914.16 18.2186 912.404 17.1211C910.648 15.8041 908.233 15.2554 905.16 15.4749C904.941 15.6944 904.721 15.8041 904.502 15.8041C904.282 15.8041 903.953 15.8041 903.514 15.8041L904.831 11.1946L952.902 0.987779L883.759 226.855L857.089 243.646H850.834L913.392 38.5225ZM897.587 246.61C891.441 245.951 886.612 243.646 883.1 239.695C879.808 235.744 877.723 230.586 876.845 224.221L883.1 214.672C883.32 215.331 883.32 216.209 883.1 217.306C883.32 223.452 884.417 228.281 886.393 231.793C888.368 235.305 891.441 237.061 895.612 237.061C903.514 237.281 911.636 231.135 919.977 218.623C928.537 205.892 936.439 188.222 943.683 165.614C947.853 152.663 950.926 141.03 952.902 130.713C954.877 120.396 955.536 111.946 954.877 105.361C954.219 98.5561 951.695 94.9343 947.305 94.4953C944.012 94.2758 939.841 97.0196 934.793 102.727C929.744 108.434 923.598 119.079 916.355 134.664C909.111 150.029 901.209 171.101 892.649 197.88L891.99 187.344C905.819 144.761 918.33 115.677 929.525 100.093C940.719 84.2885 951.365 76.606 961.462 77.045C968.925 77.045 974.523 80.3375 978.254 86.9226C981.986 93.2881 983.851 101.849 983.851 112.604C983.851 123.14 982.315 134.554 979.242 146.846C974.852 164.846 968.267 181.747 959.487 197.551C950.707 213.136 940.829 225.428 929.854 234.427C918.879 243.427 908.124 247.488 897.587 246.61Z" fill="white"/>
</svg>
