<svg width="370" height="370" viewBox="0 0 370 370" fill="none" xmlns="http://www.w3.org/2000/svg">
<rect width="370" height="370" rx="185" fill="#F83A23"/>
<path fill-rule="evenodd" clip-rule="evenodd" d="M195.2 113C201.067 113 205.933 114.667 209.8 118C213.8 121.333 216.267 126.067 217.2 132.2C218.267 138.2 217.733 145.067 215.6 152.8C215.287 153.959 214.949 155.092 214.588 156.2H244.604L233.057 193.99C235.93 187.023 238.778 181.025 241.604 176C246.538 167.467 251.538 161.534 256.604 158.2C261.671 154.867 266.938 154.067 272.404 155.8L260.805 181.2H259.604C256.271 178.8 252.405 178.933 248.005 181.6C243.738 184.266 239.204 190.067 234.404 199C230.922 205.383 227.478 213.522 224.066 223.413L213.805 257H167.8L159.591 189.8H155.095L141.2 235.2C140 238.8 139.4 241.867 139.4 244.4C139.534 246.8 140 248.734 140.8 250.2C141.733 251.667 143 252.734 144.6 253.4C144.999 253.534 145.333 253.667 145.6 253.8L144.6 257H97L98 253.8C98.2666 253.667 98.5332 253.6 98.7998 253.6C101.866 252.4 104.667 250.533 107.2 248C109.733 245.333 111.933 241.067 113.8 235.2L144.6 134.8C145.8 130.933 146.333 127.8 146.2 125.4C146.067 122.867 145.533 120.933 144.6 119.6C143.666 118.133 142.333 117.067 140.6 116.4L140 116.2L141 113H195.2ZM212.678 161.306C210.64 166.087 208.082 170.319 205 174C200.2 179.6 194.8 183.667 188.8 186.2C188.054 186.522 187.305 186.82 186.555 187.095L192.6 237.8C192.702 238.718 192.817 239.592 192.943 240.423L212.604 177C213.671 173.8 214.271 171 214.404 168.6C214.538 166.2 214.271 164.266 213.604 162.8C213.346 162.231 213.036 161.734 212.678 161.306ZM157.054 183.4H164.4C169.467 183.4 173.933 180.933 177.8 176C181.666 170.933 185.134 163.466 188.2 153.6C191.133 144.266 192.333 136.266 191.8 129.6C191.4 122.8 188.733 119.4 183.8 119.4H176.641L157.054 183.4Z" fill="black"/>
</svg>
